<mxfile host="Electron" modified="2023-06-22T11:27:57.430Z" agent="Mozilla/5.0 (X11; Linux x86_64) AppleWebKit/537.36 (KHTML, like Gecko) draw.io/21.2.1 Chrome/112.0.5615.87 Electron/24.1.2 Safari/537.36" etag="fsN9c9Z7c9mJT_2r8I2P" version="21.2.1" type="device">
  <diagram name="Seite-1" id="USYgguJ3XBzCwyXBdYhx">
    <mxGraphModel dx="1434" dy="1003" grid="1" gridSize="10" guides="1" tooltips="1" connect="1" arrows="1" fold="1" page="1" pageScale="1" pageWidth="827" pageHeight="1169" math="0" shadow="0">
      <root>
        <mxCell id="0" />
        <mxCell id="1" parent="0" />
        <mxCell id="uVHWEDpCsShMcWdxpazo-31" value="" style="rounded=0;whiteSpace=wrap;html=1;fillColor=#e1d5e7;strokeColor=#9673a6;" vertex="1" parent="1">
          <mxGeometry x="800" y="100" width="230" height="480" as="geometry" />
        </mxCell>
        <mxCell id="uVHWEDpCsShMcWdxpazo-29" value="" style="rounded=0;whiteSpace=wrap;html=1;fillColor=#fff2cc;strokeColor=#d6b656;" vertex="1" parent="1">
          <mxGeometry x="100" y="100" width="670" height="480" as="geometry" />
        </mxCell>
        <mxCell id="uVHWEDpCsShMcWdxpazo-14" value="" style="rounded=0;whiteSpace=wrap;html=1;fillColor=#f8cecc;strokeColor=#b85450;" vertex="1" parent="1">
          <mxGeometry x="119" y="120" width="261" height="440" as="geometry" />
        </mxCell>
        <mxCell id="uVHWEDpCsShMcWdxpazo-12" value="" style="rounded=0;whiteSpace=wrap;html=1;fillColor=#f5f5f5;fontColor=#333333;strokeColor=#666666;" vertex="1" parent="1">
          <mxGeometry x="420" y="408.39" width="160" height="121.61" as="geometry" />
        </mxCell>
        <mxCell id="uVHWEDpCsShMcWdxpazo-16" value="" style="edgeStyle=orthogonalEdgeStyle;rounded=0;orthogonalLoop=1;jettySize=auto;html=1;startArrow=classic;startFill=1;" edge="1" parent="1" source="uVHWEDpCsShMcWdxpazo-1" target="uVHWEDpCsShMcWdxpazo-2">
          <mxGeometry relative="1" as="geometry" />
        </mxCell>
        <mxCell id="uVHWEDpCsShMcWdxpazo-1" value="" style="sketch=0;outlineConnect=0;fontColor=#232F3E;gradientColor=none;fillColor=#3F8624;strokeColor=none;dashed=0;verticalLabelPosition=bottom;verticalAlign=top;align=center;html=1;fontSize=12;fontStyle=0;aspect=fixed;pointerEvents=1;shape=mxgraph.aws4.hardware_board;" vertex="1" parent="1">
          <mxGeometry x="160" y="200" width="78" height="78" as="geometry" />
        </mxCell>
        <mxCell id="uVHWEDpCsShMcWdxpazo-2" value="" style="dashed=0;outlineConnect=0;html=1;align=center;labelPosition=center;verticalLabelPosition=bottom;verticalAlign=top;shape=mxgraph.weblogos.arduino;fillColor=#36868D;strokeColor=none" vertex="1" parent="1">
          <mxGeometry x="159" y="340" width="80" height="40" as="geometry" />
        </mxCell>
        <mxCell id="uVHWEDpCsShMcWdxpazo-17" value="" style="edgeStyle=orthogonalEdgeStyle;rounded=0;orthogonalLoop=1;jettySize=auto;html=1;startArrow=classic;startFill=1;" edge="1" parent="1" source="uVHWEDpCsShMcWdxpazo-3" target="uVHWEDpCsShMcWdxpazo-2">
          <mxGeometry relative="1" as="geometry" />
        </mxCell>
        <mxCell id="uVHWEDpCsShMcWdxpazo-3" value="" style="image;aspect=fixed;perimeter=ellipsePerimeter;html=1;align=center;shadow=0;dashed=0;fontColor=#4277BB;labelBackgroundColor=default;fontSize=12;spacingTop=3;image=img/lib/ibm/applications/iot_application.svg;" vertex="1" parent="1">
          <mxGeometry x="158.19" y="450" width="81.61" height="81.61" as="geometry" />
        </mxCell>
        <mxCell id="uVHWEDpCsShMcWdxpazo-4" value="" style="html=1;verticalLabelPosition=bottom;align=center;labelBackgroundColor=#ffffff;verticalAlign=top;strokeWidth=2;strokeColor=#0080F0;shadow=0;dashed=0;shape=mxgraph.ios7.icons.wifi;pointerEvents=1;rotation=45;" vertex="1" parent="1">
          <mxGeometry x="220" y="429.99999999999994" width="46.46" height="38.39" as="geometry" />
        </mxCell>
        <mxCell id="uVHWEDpCsShMcWdxpazo-5" value="V" style="verticalLabelPosition=middle;shadow=0;dashed=0;align=center;html=1;verticalAlign=middle;strokeWidth=1;shape=ellipse;aspect=fixed;fontSize=50;fillColor=#f5f5f5;fontColor=#333333;strokeColor=#666666;" vertex="1" parent="1">
          <mxGeometry x="430" y="418.39" width="60" height="60" as="geometry" />
        </mxCell>
        <mxCell id="uVHWEDpCsShMcWdxpazo-6" value="A" style="verticalLabelPosition=middle;shadow=0;dashed=0;align=center;html=1;verticalAlign=middle;strokeWidth=1;shape=ellipse;aspect=fixed;fontSize=50;fillColor=#f5f5f5;fontColor=#333333;strokeColor=#666666;" vertex="1" parent="1">
          <mxGeometry x="510" y="418.39" width="60" height="60" as="geometry" />
        </mxCell>
        <mxCell id="uVHWEDpCsShMcWdxpazo-7" value="" style="html=1;verticalLabelPosition=bottom;align=center;labelBackgroundColor=#ffffff;verticalAlign=top;strokeWidth=2;strokeColor=#0080F0;shadow=0;dashed=0;shape=mxgraph.ios7.icons.wifi;pointerEvents=1;rotation=45;" vertex="1" parent="1">
          <mxGeometry x="570" y="380" width="46.46" height="38.39" as="geometry" />
        </mxCell>
        <mxCell id="uVHWEDpCsShMcWdxpazo-10" value="" style="image;html=1;image=img/lib/clip_art/computers/Server_128x128.png" vertex="1" parent="1">
          <mxGeometry x="456.5" y="189" width="80" height="80" as="geometry" />
        </mxCell>
        <mxCell id="uVHWEDpCsShMcWdxpazo-11" value="" style="image;html=1;image=img/lib/clip_art/computers/Server_128x128.png" vertex="1" parent="1">
          <mxGeometry x="900" y="183.39" width="80" height="80" as="geometry" />
        </mxCell>
        <mxCell id="uVHWEDpCsShMcWdxpazo-13" value="&lt;span style=&quot;font-size: 20px;&quot;&gt;&lt;b&gt;Batteriespeicher&lt;/b&gt;&lt;br&gt;&lt;/span&gt;" style="text;html=1;strokeColor=none;fillColor=none;align=center;verticalAlign=middle;whiteSpace=wrap;rounded=0;" vertex="1" parent="1">
          <mxGeometry x="220" y="130" width="150" height="30" as="geometry" />
        </mxCell>
        <mxCell id="uVHWEDpCsShMcWdxpazo-15" value="&lt;font style=&quot;font-size: 20px;&quot;&gt;&lt;i&gt;Raspberry Pi&lt;br&gt;Smart-Home&lt;/i&gt;&lt;br&gt;&lt;/font&gt;" style="text;html=1;strokeColor=none;fillColor=none;align=center;verticalAlign=middle;whiteSpace=wrap;rounded=0;" vertex="1" parent="1">
          <mxGeometry x="414" y="271.39" width="165" height="55.61" as="geometry" />
        </mxCell>
        <mxCell id="uVHWEDpCsShMcWdxpazo-18" value="&lt;font style=&quot;font-size: 20px;&quot;&gt;Arduino&lt;/font&gt;" style="text;html=1;strokeColor=none;fillColor=none;align=center;verticalAlign=middle;whiteSpace=wrap;rounded=0;fontStyle=1" vertex="1" parent="1">
          <mxGeometry x="240" y="345" width="150" height="30" as="geometry" />
        </mxCell>
        <mxCell id="uVHWEDpCsShMcWdxpazo-20" value="&lt;font style=&quot;font-size: 20px;&quot;&gt;Hardware&lt;/font&gt;" style="text;html=1;strokeColor=none;fillColor=none;align=center;verticalAlign=middle;whiteSpace=wrap;rounded=0;fontStyle=1" vertex="1" parent="1">
          <mxGeometry x="240" y="224" width="150" height="30" as="geometry" />
        </mxCell>
        <mxCell id="uVHWEDpCsShMcWdxpazo-21" value="&lt;font style=&quot;font-size: 20px;&quot;&gt;ESP&lt;/font&gt;" style="text;html=1;strokeColor=none;fillColor=none;align=center;verticalAlign=middle;whiteSpace=wrap;rounded=0;fontStyle=1" vertex="1" parent="1">
          <mxGeometry x="240" y="475" width="150" height="30" as="geometry" />
        </mxCell>
        <mxCell id="uVHWEDpCsShMcWdxpazo-51" value="" style="edgeStyle=orthogonalEdgeStyle;rounded=0;orthogonalLoop=1;jettySize=auto;html=1;entryX=0;entryY=0.5;entryDx=0;entryDy=0;exitX=1;exitY=0.5;exitDx=0;exitDy=0;startArrow=classic;startFill=1;" edge="1" parent="1" source="uVHWEDpCsShMcWdxpazo-22" target="uVHWEDpCsShMcWdxpazo-11">
          <mxGeometry relative="1" as="geometry">
            <Array as="points">
              <mxPoint x="830" y="223" />
              <mxPoint x="830" y="223" />
            </Array>
          </mxGeometry>
        </mxCell>
        <mxCell id="uVHWEDpCsShMcWdxpazo-57" style="edgeStyle=orthogonalEdgeStyle;rounded=0;orthogonalLoop=1;jettySize=auto;html=1;exitX=1;exitY=0.75;exitDx=0;exitDy=0;entryX=0.5;entryY=0;entryDx=0;entryDy=0;startArrow=classic;startFill=1;" edge="1" parent="1" source="uVHWEDpCsShMcWdxpazo-22" target="uVHWEDpCsShMcWdxpazo-32">
          <mxGeometry relative="1" as="geometry" />
        </mxCell>
        <mxCell id="uVHWEDpCsShMcWdxpazo-22" value="" style="image;html=1;image=img/lib/clip_art/networking/Wireless_Router_128x128.png" vertex="1" parent="1">
          <mxGeometry x="635" y="183.39" width="80" height="80" as="geometry" />
        </mxCell>
        <mxCell id="uVHWEDpCsShMcWdxpazo-23" value="" style="html=1;verticalLabelPosition=bottom;align=center;labelBackgroundColor=#ffffff;verticalAlign=top;strokeWidth=2;strokeColor=#0080F0;shadow=0;dashed=0;shape=mxgraph.ios7.icons.wifi;pointerEvents=1;rotation=45;" vertex="1" parent="1">
          <mxGeometry x="678.54" y="174.9999999999999" width="46.46" height="38.39" as="geometry" />
        </mxCell>
        <mxCell id="uVHWEDpCsShMcWdxpazo-25" value="&lt;font style=&quot;font-size: 20px;&quot;&gt;&lt;b&gt;lokaler Router&lt;/b&gt;&lt;/font&gt;" style="text;html=1;strokeColor=none;fillColor=none;align=center;verticalAlign=middle;whiteSpace=wrap;rounded=0;" vertex="1" parent="1">
          <mxGeometry x="600" y="273" width="150" height="30" as="geometry" />
        </mxCell>
        <mxCell id="uVHWEDpCsShMcWdxpazo-26" value="" style="html=1;verticalLabelPosition=bottom;align=center;labelBackgroundColor=#ffffff;verticalAlign=top;strokeWidth=2;strokeColor=#0080F0;shadow=0;dashed=0;shape=mxgraph.ios7.icons.wifi;pointerEvents=1;rotation=45;" vertex="1" parent="1">
          <mxGeometry x="502.96000000000004" y="168.99999999999994" width="46.46" height="38.39" as="geometry" />
        </mxCell>
        <mxCell id="uVHWEDpCsShMcWdxpazo-27" value="&lt;font style=&quot;font-size: 20px;&quot;&gt;&lt;b&gt;Shelly Pro 3EM&lt;/b&gt;&lt;/font&gt;" style="text;html=1;strokeColor=none;fillColor=none;align=center;verticalAlign=middle;whiteSpace=wrap;rounded=0;" vertex="1" parent="1">
          <mxGeometry x="425" y="488.39" width="150" height="30" as="geometry" />
        </mxCell>
        <mxCell id="uVHWEDpCsShMcWdxpazo-28" value="&lt;font style=&quot;font-size: 20px;&quot;&gt;&lt;i&gt;Webserver&lt;/i&gt;&lt;br&gt;&lt;/font&gt;" style="text;html=1;strokeColor=none;fillColor=none;align=center;verticalAlign=middle;whiteSpace=wrap;rounded=0;" vertex="1" parent="1">
          <mxGeometry x="865" y="254" width="150" height="31.61" as="geometry" />
        </mxCell>
        <mxCell id="uVHWEDpCsShMcWdxpazo-30" value="&lt;span style=&quot;font-size: 20px;&quot;&gt;&lt;i&gt;Internet&lt;/i&gt;&lt;br&gt;&lt;/span&gt;" style="text;html=1;strokeColor=none;fillColor=none;align=center;verticalAlign=middle;whiteSpace=wrap;rounded=0;" vertex="1" parent="1">
          <mxGeometry x="923.54" y="110" width="103.54" height="30" as="geometry" />
        </mxCell>
        <mxCell id="uVHWEDpCsShMcWdxpazo-32" value="&lt;span style=&quot;font-size: 20px;&quot;&gt;&lt;i&gt;Port&lt;br&gt;Weiterleitung&lt;/i&gt;&lt;br&gt;&lt;/span&gt;" style="text;html=1;strokeColor=none;fillColor=none;align=center;verticalAlign=middle;whiteSpace=wrap;rounded=0;" vertex="1" parent="1">
          <mxGeometry x="820" y="330" width="103.54" height="50" as="geometry" />
        </mxCell>
        <mxCell id="uVHWEDpCsShMcWdxpazo-37" value="" style="image;aspect=fixed;perimeter=ellipsePerimeter;html=1;align=center;shadow=0;dashed=0;fontColor=#4277BB;labelBackgroundColor=default;fontSize=12;spacingTop=3;image=img/lib/ibm/blockchain/blockchain_developer.svg;" vertex="1" parent="1">
          <mxGeometry x="656.46" y="415" width="60" height="60" as="geometry" />
        </mxCell>
        <mxCell id="uVHWEDpCsShMcWdxpazo-38" value="&lt;span style=&quot;font-size: 20px;&quot;&gt;&lt;b&gt;lokaler&lt;br&gt;Nutzer&lt;/b&gt;&lt;br&gt;&lt;/span&gt;" style="text;html=1;strokeColor=none;fillColor=none;align=center;verticalAlign=middle;whiteSpace=wrap;rounded=0;" vertex="1" parent="1">
          <mxGeometry x="634.69" y="490" width="103.54" height="30" as="geometry" />
        </mxCell>
        <mxCell id="uVHWEDpCsShMcWdxpazo-39" value="" style="html=1;verticalLabelPosition=bottom;align=center;labelBackgroundColor=#ffffff;verticalAlign=top;strokeWidth=2;strokeColor=#0080F0;shadow=0;dashed=0;shape=mxgraph.ios7.icons.wifi;pointerEvents=1;rotation=45;" vertex="1" parent="1">
          <mxGeometry x="703.5400000000001" y="379.99999999999994" width="46.46" height="38.39" as="geometry" />
        </mxCell>
        <mxCell id="uVHWEDpCsShMcWdxpazo-42" value="&lt;span style=&quot;font-size: 20px;&quot;&gt;&lt;i&gt;globaler Nutzer&lt;/i&gt;&lt;br&gt;&lt;/span&gt;" style="text;html=1;strokeColor=none;fillColor=none;align=center;verticalAlign=middle;whiteSpace=wrap;rounded=0;" vertex="1" parent="1">
          <mxGeometry x="898.23" y="483.61" width="81.77" height="48" as="geometry" />
        </mxCell>
        <mxCell id="uVHWEDpCsShMcWdxpazo-46" value="&lt;span style=&quot;font-size: 20px;&quot;&gt;&lt;b&gt;Haushalt&lt;/b&gt;&lt;br&gt;&lt;/span&gt;" style="text;html=1;strokeColor=none;fillColor=none;align=center;verticalAlign=middle;whiteSpace=wrap;rounded=0;" vertex="1" parent="1">
          <mxGeometry x="666.46" y="110" width="103.54" height="30" as="geometry" />
        </mxCell>
        <mxCell id="uVHWEDpCsShMcWdxpazo-54" style="edgeStyle=orthogonalEdgeStyle;rounded=0;orthogonalLoop=1;jettySize=auto;html=1;exitX=0.5;exitY=0;exitDx=0;exitDy=0;entryX=0.5;entryY=1;entryDx=0;entryDy=0;startArrow=classic;startFill=1;" edge="1" parent="1" source="uVHWEDpCsShMcWdxpazo-41" target="uVHWEDpCsShMcWdxpazo-28">
          <mxGeometry relative="1" as="geometry" />
        </mxCell>
        <mxCell id="uVHWEDpCsShMcWdxpazo-55" style="edgeStyle=orthogonalEdgeStyle;rounded=0;orthogonalLoop=1;jettySize=auto;html=1;exitX=0;exitY=0.5;exitDx=0;exitDy=0;entryX=0.5;entryY=1;entryDx=0;entryDy=0;startArrow=classic;startFill=1;" edge="1" parent="1" source="uVHWEDpCsShMcWdxpazo-41" target="uVHWEDpCsShMcWdxpazo-32">
          <mxGeometry relative="1" as="geometry" />
        </mxCell>
        <mxCell id="uVHWEDpCsShMcWdxpazo-41" value="" style="image;aspect=fixed;perimeter=ellipsePerimeter;html=1;align=center;shadow=0;dashed=0;fontColor=#4277BB;labelBackgroundColor=default;fontSize=12;spacingTop=3;image=img/lib/ibm/blockchain/blockchain_developer.svg;" vertex="1" parent="1">
          <mxGeometry x="910" y="418.39" width="60" height="60" as="geometry" />
        </mxCell>
      </root>
    </mxGraphModel>
  </diagram>
</mxfile>
